<?xml version="1.0" standalone="no"?>
<!DOCTYPE svg PUBLIC "-//W3C//DTD SVG 20010904//EN"
 "http://www.w3.org/TR/2001/REC-SVG-20010904/DTD/svg10.dtd">
<svg version="1.0" xmlns="http://www.w3.org/2000/svg"
 width="1046.000000pt" height="157.000000pt" viewBox="0 0 1046.000000 157.000000"
 preserveAspectRatio="xMidYMid meet">
<metadata>
Created by potrace 1.16, written by Peter Selinger 2001-2019
</metadata>
<g transform="translate(0.000000,157.000000) scale(0.100000,-0.100000)"
fill="#000000" stroke="none">
<path d="M44 1536 c-18 -14 -19 -35 -22 -723 -2 -537 0 -713 10 -731 12 -24
60 -52 88 -52 30 0 71 27 87 57 13 24 15 108 12 648 l-4 620 643 3 642 2 0
-248 c0 -137 3 -391 7 -565 l6 -317 -82 0 -82 0 6 43 c6 37 3 46 -21 72 l-28
30 -165 3 c-90 1 -167 4 -169 7 -3 2 1 11 8 20 7 8 9 15 4 15 -5 0 -4 4 2 8
17 11 94 124 94 138 0 6 7 14 15 18 8 3 15 12 15 20 0 8 4 16 8 18 12 5 122
172 122 185 0 6 7 13 15 17 8 3 15 12 15 20 0 8 3 16 8 18 12 5 95 131 95 145
0 7 3 10 7 8 10 -6 54 84 58 117 4 39 -36 78 -82 78 -49 0 -87 -16 -113 -48
-19 -22 -23 -24 -23 -9 0 11 -14 32 -31 48 l-31 29 -333 0 c-207 0 -343 -4
-362 -11 -40 -13 -67 -71 -57 -119 8 -42 8 -61 -1 -117 -7 -36 -4 -45 18 -67
l26 -26 196 0 197 0 -31 -39 c-17 -21 -31 -44 -31 -50 0 -6 -4 -11 -10 -11 -5
0 -10 -7 -10 -15 0 -8 -4 -15 -10 -15 -5 0 -10 -7 -10 -15 0 -8 -4 -15 -9 -15
-4 0 -28 -30 -52 -67 -24 -38 -51 -77 -61 -87 -10 -11 -18 -26 -18 -33 0 -7
-4 -13 -10 -13 -5 0 -10 -7 -10 -15 0 -8 -4 -15 -9 -15 -5 0 -23 -23 -41 -51
-17 -28 -39 -60 -49 -70 -10 -11 -24 -32 -32 -47 -8 -15 -20 -33 -27 -41 -24
-25 -93 -131 -85 -131 4 0 2 -5 -5 -12 -20 -20 -14 -65 12 -95 l24 -28 629 3
c345 2 641 6 656 8 18 4 32 15 38 31 5 14 9 313 9 729 l0 705 -26 24 -27 25
-792 0 c-667 0 -794 -2 -811 -14z"/>
<path d="M2311 1361 c-21 -21 -21 -23 -21 -576 l1 -554 26 -21 c24 -19 39 -20
219 -20 217 0 331 18 414 64 25 14 55 30 68 36 12 5 25 17 28 25 4 8 12 15 19
15 14 0 52 48 75 95 8 17 18 32 21 35 16 12 61 141 70 205 16 98 7 307 -16
369 -64 183 -137 255 -320 318 -53 19 -89 22 -311 26 -247 4 -252 4 -273 -17z
m477 -221 c2 -6 12 -10 22 -10 26 0 99 -75 121 -126 30 -66 44 -198 31 -286
-13 -83 -41 -178 -54 -178 -4 0 -8 -4 -8 -10 0 -16 -50 -60 -94 -83 -32 -17
-63 -22 -143 -25 l-103 -4 0 364 c0 201 3 368 8 373 10 11 216 -3 220 -15z"/>
<path d="M3381 1361 c-20 -20 -20 -32 -21 -576 0 -543 0 -555 20 -575 19 -19
32 -20 364 -20 189 0 351 3 360 6 9 3 16 12 16 20 0 8 5 14 11 14 16 0 8 165
-9 182 -10 10 -74 14 -250 18 l-237 5 0 125 0 125 147 5 c177 6 177 6 178 118
0 107 -6 112 -167 111 -71 0 -136 0 -146 0 -16 1 -17 11 -15 114 l3 112 207 5
c257 6 252 4 246 120 -2 47 -8 84 -16 92 -10 10 -89 14 -342 16 -319 3 -330 2
-349 -17z"/>
<path d="M4283 1370 c-12 -5 -25 -19 -28 -32 -3 -13 -5 -270 -3 -571 4 -642
-10 -580 130 -575 54 2 92 8 100 16 10 10 14 86 15 329 2 174 5 318 8 321 7 7
30 -24 56 -75 11 -24 25 -43 30 -43 5 0 9 -7 9 -15 0 -8 9 -19 20 -25 11 -6
20 -20 20 -30 0 -11 5 -20 10 -20 6 0 10 -6 10 -12 0 -7 11 -26 25 -42 14 -16
25 -35 25 -41 0 -7 11 -24 24 -38 14 -15 27 -35 31 -46 3 -10 16 -30 28 -43
12 -13 33 -45 46 -71 13 -26 27 -47 31 -47 4 0 13 -13 20 -30 7 -16 16 -30 20
-30 4 0 10 -10 13 -22 4 -12 9 -19 13 -15 4 3 16 0 28 -8 13 -10 45 -15 92
-15 81 0 104 6 104 26 0 8 5 14 10 14 7 0 10 192 10 555 0 654 13 595 -125
594 -134 0 -125 25 -125 -358 0 -203 -4 -322 -10 -326 -5 -3 -10 1 -10 10 0
17 -48 98 -61 103 -5 2 -9 9 -9 16 0 6 -12 27 -27 46 -16 19 -37 52 -47 73
-11 20 -23 37 -28 37 -4 0 -8 6 -8 14 0 7 -7 19 -15 26 -8 7 -25 33 -37 57
-13 25 -28 48 -35 50 -7 3 -11 8 -8 13 2 4 -5 16 -15 28 -11 12 -20 23 -20 26
0 15 -94 147 -116 165 -22 17 -40 21 -103 20 -42 0 -86 -4 -98 -9z"/>
<path d="M5302 1362 c-15 -15 -20 -36 -21 -95 -3 -115 1 -117 189 -117 l150 0
0 -460 c0 -300 3 -460 10 -460 6 0 10 -6 10 -14 0 -21 23 -26 119 -26 139 0
126 -50 129 494 l3 466 147 0 c106 0 153 4 166 13 13 10 19 32 23 92 8 131 51
120 -466 123 -421 2 -441 2 -459 -16z"/>
<path d="M6361 1361 c-21 -21 -21 -29 -21 -576 0 -363 3 -555 10 -555 6 0 10
-6 10 -14 0 -21 23 -26 119 -26 140 0 126 -64 128 586 2 659 16 595 -133 601
-83 4 -95 2 -113 -16z"/>
<path d="M7010 1361 c-73 -19 -156 -63 -152 -80 1 -6 -4 -11 -11 -11 -7 0 -21
-10 -32 -22 -66 -78 -75 -288 -14 -349 10 -10 19 -25 19 -32 0 -32 113 -118
233 -176 136 -66 184 -101 203 -147 19 -44 9 -66 -40 -93 -35 -18 -57 -22
-111 -20 -65 2 -154 22 -221 49 -49 21 -79 -6 -105 -92 -27 -92 -21 -111 43
-142 28 -14 55 -23 60 -20 4 3 8 1 8 -3 0 -12 149 -33 226 -33 74 0 188 18
192 31 2 5 12 9 21 9 52 0 132 68 172 147 21 40 24 60 24 147 0 96 -16 166
-37 166 -5 0 -8 6 -8 14 0 18 -81 98 -118 117 -15 8 -33 19 -39 26 -7 6 -34
19 -60 29 -27 10 -54 24 -61 31 -7 7 -18 13 -23 13 -15 0 -112 70 -136 98 -83
98 88 162 265 100 20 -7 40 -17 43 -22 4 -5 23 -6 43 -2 26 5 40 15 51 37 9
16 13 34 10 39 -3 5 -1 11 4 14 5 3 12 26 15 50 10 64 -9 88 -92 116 -90 31
-276 37 -372 11z"/>
<path d="M7560 1360 c-16 -16 -20 -33 -20 -95 0 -43 4 -75 10 -75 6 0 10 -6
10 -14 0 -22 24 -26 176 -26 l144 0 0 -454 c0 -250 3 -461 6 -470 3 -9 12 -16
20 -16 8 0 14 -4 14 -10 0 -16 183 -13 206 4 18 14 19 32 22 480 l3 466 148 0
c136 0 149 2 170 21 21 20 23 29 19 100 -2 46 -8 83 -16 91 -10 10 -109 14
-452 16 -429 2 -440 2 -460 -18z"/>
<path d="M8612 1355 c-21 -21 -21 -28 -19 -579 2 -650 -12 -586 128 -586 96 0
119 5 119 26 0 8 4 14 10 14 6 0 11 81 12 208 l3 207 49 3 c59 4 86 -9 111
-51 10 -18 24 -35 31 -40 7 -4 16 -22 19 -39 4 -18 11 -39 15 -48 5 -8 16 -37
26 -65 30 -87 76 -178 98 -197 17 -14 40 -17 124 -18 61 0 102 4 102 10 0 6 6
10 14 10 7 0 16 14 20 31 5 26 -5 54 -50 148 -31 64 -64 132 -73 151 -9 19
-21 42 -28 50 -6 8 -12 17 -12 20 0 14 -23 63 -36 76 -17 17 -20 44 -5 44 13
0 76 62 73 72 -2 4 2 8 7 8 6 0 10 9 10 20 0 11 4 20 10 20 30 0 48 271 20
305 -7 8 -9 15 -6 15 8 0 -21 54 -44 82 -8 10 -20 18 -27 18 -7 0 -12 5 -10
12 1 6 -26 27 -61 45 -82 44 -164 54 -413 52 -186 -2 -197 -4 -217 -24z m487
-231 c14 -16 27 -34 28 -39 12 -75 -1 -147 -31 -171 -45 -38 -66 -44 -151 -44
l-85 0 0 138 c0 76 3 142 8 146 4 5 51 6 106 4 93 -5 100 -7 125 -34z"/>
<path d="M9478 1358 c-10 -10 -18 -25 -18 -34 0 -18 59 -135 73 -145 5 -3 8
-9 8 -13 -3 -20 0 -26 9 -21 6 3 10 1 10 -5 0 -20 60 -140 70 -140 6 0 10 -8
10 -17 0 -16 56 -123 70 -133 4 -3 10 -17 13 -32 4 -15 13 -33 20 -40 7 -7 26
-40 42 -73 29 -59 30 -62 35 -272 4 -155 9 -216 18 -225 8 -8 48 -14 110 -16
88 -3 99 -1 120 18 21 20 22 26 22 230 0 177 3 216 17 250 10 22 21 40 25 40
5 0 8 9 8 20 0 11 3 20 8 20 4 0 18 24 31 53 13 28 27 54 31 57 4 3 30 52 60
110 105 210 113 225 119 230 33 28 48 117 23 142 -15 15 -164 21 -210 9 -23
-7 -40 -16 -37 -20 2 -5 -2 -14 -10 -21 -8 -7 -15 -21 -15 -30 0 -10 -3 -20
-7 -22 -11 -4 -73 -128 -73 -144 0 -7 -4 -14 -8 -16 -4 -1 -27 -43 -51 -91
-26 -53 -47 -85 -52 -80 -5 5 -31 53 -58 106 -27 53 -51 93 -55 90 -3 -4 -6 0
-6 8 0 8 -21 58 -47 111 -32 64 -56 101 -72 108 -13 6 -66 10 -119 9 -77 -2
-99 -6 -114 -21z"/>
</g>
</svg>
